# xmcd CD database file
#
# Track frame offsets:
#	150
#	37561
#	58557
#	79765
#	129770
#	155321
#	195369
#	220976
#	247147
#	270466
#	307476
#
# Disc length: 4437 seconds
#
# Revision: 0
# Processed by: cddbd v1.5.1PL2 Copyright (c) Steve Scherf et al.
# Submitted via: CDex 1.51
#
DISCID=8d11530b
DTITLE=Zoog A Jazz - Zoogami
DYEAR=2005
DGENRE=Jazz
TTITLE0=Road song
TTITLE1=The Jody Grind
TTITLE2=Elvin
TTITLE3=Landscape
TTITLE4=What are you thinking now
TTITLE5=You've said it is love
TTITLE6=Sister sadie
TTITLE7=Summetime
TTITLE8=Spiderman
TTITLE9=Jazz dance
TTITLE10=One step
EXTD=YEAR: 2005
EXTT0=
EXTT1=
EXTT2=
EXTT3=
EXTT4=
EXTT5=
EXTT6=
EXTT7=
EXTT8=
EXTT9=
EXTT10=
PLAYORDER=
